<svg xmlns="http://www.w3.org/2000/svg" width="420.544" height="465.245"><path d="M420.057 268.465a338.182 338.182 0 00-65.821-181.826c-2.51-3.371-24.833-26.769-24.026-28.813-19.741 49.343-71.522 58.021-117.745 45.4-36.339-9.922-71.844-39.985-63.202-81.529.771-3.711 2.922-5.845 1.56-8.57-1.937-3.891-16.621-7.853-19.797-8.804-19.866-5.827-42.1-5.558-62.073-.43-35.535 9.126-61.82 35.645-67.539 72.011-10.74 68.187 41.418 107.758 98.847 129.973 74.391 28.8 164 33.905 221.092 96.122 10.256 11.636 12.246 14.846 16.406 21.247a179.134 179.134 0 0119.723 41.812c10.363 31.592 14.469 67.04 12.246 100.192 20.35-33.493 36.147-70.267 43.928-109.892a351.366 351.366 0 006.401-86.893z" fill="#fff" opacity=".024"/></svg>