<svg xmlns="http://www.w3.org/2000/svg" width="426.185" height="474.299"><path d="M424.612 361.034c-8.75-65.175-77.421-98.6-133.559-113.675-65.928-17.7-150.861-30-198.429-88.806C58.164 115.952 46.812 53.556 50.561-.004a333.663 333.663 0 00-41.687 99.9c-15.1 63.956-10.937 134.24 12.515 196.726C37.92 340.64 63.918 380.48 96.64 414.062a77.745 77.745 0 013.572-11.448 88.762 88.762 0 00-3.568 11.493c19.6-74.032 136-66.735 168.755-6.311a62.249 62.249 0 017.154 21.354 51.2 51.2 0 01.52 7.764c-.09 4.967-5.02 14.254-3.945 18.145 1.614 5.863 16.011 11.242 22.376 13.573 37.061 13.591 80.379 1.919 107.579-26.231 20.329-21.033 31.411-52.177 25.529-81.367z" fill="#fff" opacity=".019"/></svg>