<svg xmlns="http://www.w3.org/2000/svg" width="4.688" height="11.661"><path d="M4.674 10.983a1.149 1.149 0 00-.109-.611q-.038-.142-.114-.4t-.135-.466q-.059-.211-.106-.4c0-.022-.015-.089-.036-.2a1.9 1.9 0 00-.066-.27.438.438 0 00-.1-.168.556.556 0 00-.372-.1 3.211 3.211 0 00-.554.033 4.141 4.141 0 01-.544.042.51.51 0 01-.353-.083.452.452 0 01-.083-.13 1.407 1.407 0 01-.057-.137c-.011-.033-.027-.093-.047-.18s-.032-.135-.036-.145a6.637 6.637 0 010-3.873c0-.01.015-.058.036-.145s.036-.147.047-.18a1.449 1.449 0 01.057-.137.459.459 0 01.083-.13.51.51 0 01.353-.083 4.141 4.141 0 01.544.042 3.252 3.252 0 00.554.033.558.558 0 00.372-.1.438.438 0 00.1-.168 1.9 1.9 0 00.066-.27l.036-.2q.047-.189.106-.4t.135-.466c.051-.17.088-.3.114-.4A1.151 1.151 0 004.674.68a.379.379 0 00-.085-.114A2.251 2.251 0 004.208.28a2.648 2.648 0 00-.424-.225 1.793 1.793 0 00-1.08.075 2.593 2.593 0 00-1.122.64 2.53 2.53 0 00-.232.265 2.862 2.862 0 00-.213.331q-.109.194-.156.294t-.166.36c-.079.174-.128.279-.147.317a6.064 6.064 0 00-.436 1.222 11.245 11.245 0 000 4.546 6.064 6.064 0 00.436 1.222c.019.038.068.144.147.317s.134.293.166.36.084.164.156.294a2.863 2.863 0 00.213.331 2.442 2.442 0 00.232.265 2.593 2.593 0 001.122.64 1.8 1.8 0 001.08.076 2.716 2.716 0 00.424-.225 2.223 2.223 0 00.381-.286.379.379 0 00.085-.113z" fill="#ff5252"/></svg>