<?xml version="1.0" encoding="utf-8"?><svg viewBox="0 0 512 512" xmlns="http://www.w3.org/2000/svg" xmlns:xlink="http://www.w3.org/1999/xlink"><style>:root>svg{display:none}:root>svg:target{display:block}</style><svg viewBox="0 0 512 512" id="gold-medal" xmlns="http://www.w3.org/2000/svg"><path d="M448.889 39.542C448.889 17.739 431.15 0 409.346 0H165.337a7.5 7.5 0 000 15h244.009c13.533 0 24.542 11.01 24.542 24.542s-11.01 24.542-24.542 24.542H102.654c-13.533 0-24.542-11.01-24.542-24.542S89.121 15 102.654 15h31.866a7.5 7.5 0 000-15h-31.866C80.85 0 63.111 17.739 63.111 39.542c0 18.771 13.151 34.517 30.72 38.538v42.624c0 26.741 8.556 52.082 24.743 73.285 15.665 20.518 37.879 35.74 62.553 42.862 6.7 1.938 15.91 3.557 21.224 4.098-.84 5.811.043 11.49 2.649 17.035-47.608 19.995-81.129 67.098-81.129 121.886C123.871 452.727 183.144 512 256 512s132.129-59.273 132.129-132.129c0-54.788-33.521-101.891-81.129-121.886 2.606-5.545 3.489-11.222 2.649-17.033a120.494 120.494 0 0021.224-4.101l.002-.001c24.672-7.123 46.886-22.345 62.55-42.861 16.187-21.203 24.743-46.544 24.743-73.285V78.08c17.57-4.021 30.721-19.767 30.721-38.538zM256 497c-64.585 0-117.129-52.544-117.129-117.129S191.415 262.741 256 262.741s117.129 52.544 117.129 117.129S320.585 497 256 497zm0-249.259a131.793 131.793 0 00-36.659 5.178 14.228 14.228 0 01-2.298-7.755c0-7.899 6.426-14.326 14.326-14.326h49.262c7.899 0 14.326 6.427 14.326 14.326 0 2.858-.85 5.516-2.298 7.754A131.83 131.83 0 00256 247.741zm24.631-31.902h-49.262c-9.048 0-17.15 4.121-22.534 10.583a106.022 106.022 0 01-18.128-2.572V79.085h130.586V223.85a106.024 106.024 0 01-18.128 2.573c-5.383-6.463-13.486-10.584-22.534-10.584zm-171.799-95.134v-41.62h66.875v140.072c-17.743-7.066-33.545-18.991-45.21-34.27-14.174-18.565-21.665-40.759-21.665-64.182zm227.461 98.452V79.085h66.875v41.62c0 23.423-7.492 45.617-21.666 64.182-11.664 15.279-27.466 27.204-45.209 34.27z"/><path d="M256 288.509c-50.377 0-91.361 40.984-91.361 91.361s40.984 91.361 91.361 91.361 91.361-40.984 91.361-91.361-40.984-91.361-91.361-91.361zm0 167.723c-42.106 0-76.361-34.255-76.361-76.361S213.894 303.51 256 303.51s76.361 34.255 76.361 76.361-34.255 76.361-76.361 76.361z"/><path d="M209.543 365.25a7.5 7.5 0 00-7.5 7.5v8.927a7.5 7.5 0 0015 0v-8.927a7.5 7.5 0 00-7.5-7.5zm92.914 0a7.5 7.5 0 00-7.5 7.5v8.927a7.5 7.5 0 0015 0v-8.927a7.5 7.5 0 00-7.5-7.5zm-29.282 10.507a7.5 7.5 0 00-10.582.727c-1.666 1.911-4.069 3.007-6.594 3.007s-4.928-1.096-6.594-3.007a7.5 7.5 0 00-11.309 9.855c4.515 5.181 11.04 8.153 17.902 8.153s13.388-2.972 17.902-8.153a7.498 7.498 0 00-.725-10.582z"/></svg><svg viewBox="0 0 77.99 75.01" id="ico-advantages-1" xmlns="http://www.w3.org/2000/svg"><g stroke-linecap="round" stroke-linejoin="round"><path d="M53.16 18.26a1.88 1.88 0 11-1.88-1.86 1.86 1.86 0 011.88 1.86zm-24.5 16.18a1.87 1.87 0 11-1.88-1.86 1.87 1.87 0 011.87 1.86z"/><path d="M31.71 14.39L51 1.33 76.66 17.7l-20 13.61M21.54 21.29L1.33 35 27 51.36l18-12.17"/><path d="M38.28 18.46l12.8-8.68 12.74 8.11-8.85 6M23 28.84l-8.8 6 12.75 8.11 12.5-8.48M1.33 42.41L27 58.8l19.18-13m30.49-20.66L58.4 37.53"/><path d="M1.33 49.85L27 66.24l18.58-12.6m31.09-21.06L58.4 44.96"/><path d="M1.33 57.29L27 73.68 47.26 60m29.41-19.98L58.4 52.4"/><path d="M21.86 21.55l25.4 16.17v22.52a1.24 1.24 0 001.25 1.24 1.27 1.27 0 00.71-.22L56.65 56a1.26 1.26 0 00.53-1V31.67L29.94 14.32a1.77 1.77 0 00-2 0l-6.17 4.26a1.75 1.75 0 00-.45 2.44 1.8 1.8 0 00.54.53z"/></g></svg><svg viewBox="0 0 68.005 98.995" id="ico-advantages-2" xmlns="http://www.w3.org/2000/svg"><g opacity=".8" stroke-linecap="round" stroke-width="3.143"><path data-name="Path 221" d="M44.602 39.404c-2.553 4.826-6.354 8.086-10.6 8.086-5.764 0-10.709-6.008-12.822-13.783"/><path data-name="Path 222" d="M48.827 18.414a10.931 10.931 0 00-2.51-6.428C43.143 8 35.517 3.808 25.552 8.56a11.424 11.424 0 00-6.713 10.72 4.732 4.732 0 003.721 4.688c11.717 2.544 15.262-1.83 19.44-4.041"/><path data-name="Path 223" d="M15.992 59.407l12.166 16.811a7.143 7.143 0 0011.7 0l9.57-13.619"/><path data-name="Path 224" d="M61.793 97.422H6.214a4.649 4.649 0 01-4.642-4.656V78.631a21.727 21.727 0 0121.7-21.76h21.472a21.728 21.728 0 0121.7 21.76v14.137a4.649 4.649 0 01-4.651 4.654z"/><path data-name="Path 225" d="M36.575 62.598l1.3-5.728h-7.742l1.1 5.728"/><path data-name="Path 226" d="M39.394 76.391l-2.583-13.319h-5.606L28.62 76.391"/><path data-name="Line 233" d="M42.486 51.026l.931 4.793"/><path data-name="Line 234" d="M25.531 55.819l1.192-10.763"/><path data-name="Rectangle 16" d="M51.003 77.147h6.268a2.542 2.542 0 012.542 2.542v.4a2.652 2.652 0 01-2.651 2.658h-8.527v-3.232a2.368 2.368 0 012.368-2.368z"/><path data-name="Rectangle 17" d="M16.19 24.224l3.01-.567 1.85 9.933-3.01.567a2.903 2.897-50.301 01-3.381-2.313l-.788-4.233a2.903 2.897-50.301 012.32-3.387z"/><path data-name="Rectangle 18" d="M50.03 34.124l-3.01-.562 1.845-9.935 3.01.562a2.898 2.902-34.435 012.322 3.381l-.786 4.235a2.898 2.902-34.435 01-3.38 2.319z"/><path data-name="Path 227" d="M14.495 24.263l-.486-3.933C12.778 10.365 22.05 1.572 32.061 1.572h3.577c9.726 0 18.706 8.325 17.924 18.048l-.336 4.176"/><path data-name="Path 228" d="M51.063 35.786l-.273 1.122a2.4 2.4 0 01-2.332 1.837H39.91"/></g></svg><svg viewBox="0 0 107.996 81.025" id="ico-advantages-3" xmlns="http://www.w3.org/2000/svg"><g opacity=".8" stroke-linecap="round" stroke-width="3.165"><path data-name="Path 237" d="M16.319 18.32c2.809-.049 5.319 3.223 12.72 1.09 0 0 3.315-5.809-3.455-9.011-6.382-3.018-12.85-.507-14.882 2.03-1.625 2.028-.83 5.245-.448 6.451a8.537 8.537 0 01.277 1.093l.061.341a8.165 8.165 0 01.119 1.224c.22 6.962 4.117 13.373 8.895 13.373 4.917 0 8.9-6.8 8.9-13.99"/><path data-name="Path 238" d="M28.678 40.884a9.66 9.66 0 016.468 2.469q.247.222.48.46"/><path data-name="Path 239" d="M11.252 40.884a9.654 9.654 0 00-9.67 9.632v7.915a5.3 5.3 0 005.311 5.3h11.869"/><path data-name="Line 237" d="M24.963 34.911l1.012 5.288"/><path data-name="Line 238" d="M13.962 40.149l.937-6.062"/><path data-name="Path 240" d="M12.549 40.88l3.079 4.4a5.159 5.159 0 004.229 2.2 5.158 5.158 0 004.253-2.236l3-4.363"/><path data-name="Path 241" d="M92.129 17.316c-2.442.437-5.466 4.418-13.528 2.095 0 0-3.315-5.809 3.455-9.011 6.382-3.018 12.85-.507 14.882 2.03 1.625 2.028.83 5.245.448 6.451a8.537 8.537 0 00-.277 1.093l-.062.341a8.165 8.165 0 00-.119 1.224c-.22 6.962-4.117 13.373-8.895 13.373-4.917 0-8.9-6.8-8.9-13.99"/><path data-name="Path 242" d="M72.388 43.805a9.638 9.638 0 016.928-2.921"/><path data-name="Path 243" d="M96.749 40.88a9.651 9.651 0 019.664 9.638v8.606a4.611 4.611 0 01-4.616 4.6H89.239"/><path data-name="Line 239" d="M93.032 34.911l1.012 5.288"/><path data-name="Line 240" d="M82.03 40.149l.937-6.062"/><path data-name="Path 244" d="M80.618 40.88l3.079 4.4a5.159 5.159 0 004.229 2.2 5.158 5.158 0 004.253-2.236l3-4.363"/><path data-name="Path 245" d="M60.91 12.882c-3.485-1.145-6.883 5.668-18 3.169a3.136 3.136 0 01-2.33-2.125c-.762-2.551-1.136-7.392 5.353-10.461 8.615-4.074 17.347-.686 20.089 2.738 2.281 2.849 1.031 7.429.546 8.89a8.056 8.056 0 00-.283 1.116l-.165.914-.1 1.1c-.2 9.5-5.5 18.333-12.013 18.333-6.638 0-12.019-9.173-12.019-18.887"/><path data-name="Path 246" d="M82.014 79.443H31.069a5.078 5.078 0 01-5.084-5.072V62.458a17.87 17.87 0 0117.894-17.846h20.237a17.87 17.87 0 0117.9 17.846v4.535"/><path data-name="Path 247" d="M56.59 50.347l.429-1.88a3.157 3.157 0 00-3.085-3.855 3.158 3.158 0 00-3.107 3.751l.383 1.984"/><path data-name="Path 248" d="M59.069 62.331l-1.747-8.957a3.163 3.163 0 00-3.106-2.552h-.43a3.162 3.162 0 00-3.106 2.552l-1.749 8.957a3.149 3.149 0 001.072 3.02l1.963 1.643a3.171 3.171 0 004.067 0l1.963-1.643a3.153 3.153 0 001.073-3.02z"/><path data-name="Line 241" d="M61.328 39.593l.785 4.102"/><path data-name="Line 242" d="M45.895 43.627l1.266-8.184"/></g></svg><svg viewBox="0 0 88.002 100.002" id="ico-advantages-4" xmlns="http://www.w3.org/2000/svg"><g opacity=".8" stroke-linecap="round" stroke-miterlimit="10" stroke-width="3.166"><path data-name="Path 261" d="M35.942 46.061c-.822-1.314-.673-1.683-.673-1.683l2.45-3.561a2.224 2.224 0 00-.218-2.9l-5.078-5.052a2.071 2.071 0 00-2.733-.168l-2.206 1.71a2.462 2.462 0 00-.5.514c-4.352 6.081 1.754 15.658 9.28 23.151 7.321 7.29 17.231 13.784 23.213 9.141a2.532 2.532 0 00.447-.46l1.724-2.253a2.082 2.082 0 00-.185-2.739l-5.076-5.05a2.217 2.217 0 00-2.9-.2l-3.543 2.473s-1.416.514-8.3-6.337a53.251 53.251 0 01-4.908-5.439 17.81 17.81 0 01-.8-1.148"/><path data-name="Path 262" d="M29.585 78.518a32.2 32.2 0 0114.712-60.777l.006 3.611 10.3-8.856-10.332-9.01.006 3.611a42.845 42.845 0 00-19.868 80.725"/><path data-name="Path 263" d="M58.306 21.424a32.2 32.2 0 01-14.657 60.837V78.65l-10.317 8.836 10.316 9.027v-3.611A42.844 42.844 0 0063.424 12.09"/></g></svg><svg viewBox="0 0 116 77.19" id="ico-advantages-5" xmlns="http://www.w3.org/2000/svg"><g transform="translate(-711.652 -539.107)" opacity=".8"><path data-name="Path 267" d="M755.309 548.52h28.24a2.42 2.42 0 012.422 2.417v32.04a2.42 2.42 0 01-2.422 2.419h-47.243a2.42 2.42 0 01-2.421-2.419v-32.04a2.419 2.419 0 012.421-2.417h3.672"/><path data-name="Path 268" d="M779.766 560.773h-18.249v-6.027h18.249v2.634"/><path data-name="Line 249" d="M761.517 577.287h3.034"/><path data-name="Line 250" d="M769.125 577.287h3.034"/><path data-name="Line 251" d="M776.732 577.287h3.034"/><path data-name="Line 252" d="M761.517 572.122h3.034"/><path data-name="Line 253" d="M769.125 572.122h3.034"/><path data-name="Line 254" d="M776.732 572.122h3.034"/><path data-name="Line 255" d="M761.517 566.956h3.034"/><path data-name="Line 256" d="M769.125 566.956h3.034"/><path data-name="Line 257" d="M776.732 566.956h3.034"/><path data-name="Path 269" d="M739.979 548.521v-4.813A3.021 3.021 0 01743 540.69h9.285a3.02 3.02 0 013.022 3.018v32.439a3.02 3.02 0 01-3.022 3.019H743a3.021 3.021 0 01-3.023-3.019v-23.316"/><path data-name="Line 258" d="M794.679 603.29h-21.006"/><path data-name="Line 259" d="M733.549 595.359v7.93"/><path data-name="Path 270" d="M820.391 603.294h5.676v-13.125a6.192 6.192 0 00-2.827-5.191l-6.773-4.374-2.743-12.46a4.61 4.61 0 00-4.512-3.629h-21.789"/><path data-name="Line 260" d="M747.962 603.29h-14.413"/><path data-name="Path 271" d="M807.709 570.774l2.378 11.04h-9.015a5.026 5.026 0 01-5.029-5.022v-6.017z"/><path data-name="Line 261" d="M817.303 594.112h8.766"/><ellipse data-name="Ellipse 5" cx="9.232" cy="9.244" rx="9.232" ry="9.244" transform="rotate(-80.8 732.327 -133.183)"/><ellipse data-name="Ellipse 6" cx="9.233" cy="9.243" rx="9.233" ry="9.243" transform="rotate(-76.76 781.954 -195.53)"/><path data-name="Path 272" d="M806.762 603.294a2.834 2.834 0 11-2.833-2.83 2.832 2.832 0 012.833 2.83z"/><ellipse data-name="Ellipse 7" cx="2.834" cy="2.83" rx="2.834" ry="2.83" transform="translate(754.374 600.465)"/><path data-name="Line 262" d="M726.168 603.295h-12.933"/><path data-name="Line 263" d="M726.168 589.306h-8.722"/><path data-name="Line 264" d="M726.168 572.913h-4.361"/></g></svg><svg viewBox="0 0 77.004 70.995" id="ico-advantages-6" xmlns="http://www.w3.org/2000/svg"><g opacity=".8" stroke-linecap="round" stroke-miterlimit="10" stroke-width="3.153"><path data-name="Path 279" d="M34.782 30.53c0 5.016-7.433 9.081-16.6 9.081s-16.6-4.065-16.6-9.081 7.433-9.082 16.6-9.082c5.109 0 9.679 1.262 12.724 3.248"/><path data-name="Path 280" d="M34.782 50.403c0 5.015-7.433 9.081-16.6 9.081s-16.6-4.066-16.6-9.081"/><path data-name="Path 281" d="M34.782 31.877v28.461c0 5.015-7.433 9.081-16.6 9.081s-16.6-4.066-16.6-9.081V40.466c0 5.016 7.433 9.082 16.6 9.082s16.6-4.066 16.6-9.082"/><path data-name="Path 282" d="M75.431 40.466c0 5.016-7.433 9.082-16.6 9.082s-16.6-4.066-16.6-9.082"/><path data-name="Path 283" d="M42.224 30.53c0 5.016 7.433 9.081 16.6 9.081s16.6-4.065 16.6-9.081"/><path data-name="Path 284" d="M75.431 10.658c0 5.016-7.433 9.082-16.6 9.082s-16.6-4.066-16.6-9.082 7.433-9.081 16.6-9.081c5.278 0 9.981 1.347 13.023 3.447"/><path data-name="Path 285" d="M75.431 50.403c0 5.015-7.433 9.081-16.6 9.081s-16.6-4.066-16.6-9.081"/><path data-name="Path 286" d="M75.431 13.086v47.252c0 5.015-7.433 9.081-16.6 9.081s-16.6-4.066-16.6-9.081V20.594c0 5.015 7.433 9.081 16.6 9.081s16.6-4.066 16.6-9.081"/></g></svg><svg viewBox="0 0 11.317 6.119" id="ico-arrow" xmlns="http://www.w3.org/2000/svg"><path d="M.007.444A.3.3 0 00.024.5l.022.056a.327.327 0 00.028.056.276.276 0 00.038.051L5.43 6.005a.376.376 0 00.537 0L11.206.73a.37.37 0 00.11-.269.376.376 0 00-.11-.27.377.377 0 00-.537 0L5.698 5.196.649.112A.38.38 0 000 .382a.305.305 0 00.007.062z"/></svg><svg viewBox="0 0 11.316 6.119" id="ico-arrow-blue" xmlns="http://www.w3.org/2000/svg"><path d="M.007.444A.3.3 0 00.024.5l.022.056a.329.329 0 00.028.056.264.264 0 00.039.05l5.318 5.342a.376.376 0 00.537 0L11.207.729a.371.371 0 00.111-.27.377.377 0 00-.111-.271.377.377 0 00-.537 0L5.699 5.194.65.11a.38.38 0 00-.649.27.307.307 0 00.006.064z"/></svg><svg viewBox="0 0 13.32 8" id="ico-arrow-menu" xmlns="http://www.w3.org/2000/svg"><path d="M1 1.38a.14.14 0 000 .06v.16L6.43 7A.38.38 0 007 7l5.24-5.28a.39.39 0 000-.54.38.38 0 00-.54 0l-5 5-5.05-5.13a.38.38 0 00-.54 0 .39.39 0 00-.11.27.13.13 0 000 .06z"/></svg><svg viewBox="0 0 27.941 15.034" id="ico-arrow-pink" xmlns="http://www.w3.org/2000/svg"><path d="M12.588 14.493L.572 3.152a1.777 1.777 0 010-2.612 2.04 2.04 0 012.767 0l4.042 3.815 6.59 6.219L24.601.539a2.039 2.039 0 012.766 0 1.773 1.773 0 010 2.612L15.354 14.494a2.041 2.041 0 01-2.767 0z"/></svg><svg viewBox="0 0 33.002 46.003" id="ico-arrow-shadow" xmlns="http://www.w3.org/2000/svg"><defs><filter id="ala" x="0" y="0" width="33.002" height="46.003" filterUnits="userSpaceOnUse"><feOffset dy="3"/><feGaussianBlur stdDeviation="3" result="blur"/><feFlood flood-opacity=".161"/><feComposite operator="in" in2="blur"/><feComposite in="SourceGraphic"/></filter></defs><g filter="url(#ala)"><path data-name="ico-arrow-shadow" d="M9.54 18.62L20.857 6.577a1.767 1.767 0 012.606 0 2.051 2.051 0 010 2.773L13.449 20.006 23.463 30.66a2.05 2.05 0 010 2.772 1.764 1.764 0 01-2.606 0L9.539 21.393a2.051 2.051 0 010-2.773z"/></g></svg><svg viewBox="0 0 27.941 15.034" id="ico-arrow-white" xmlns="http://www.w3.org/2000/svg"><path d="M12.588 14.493L.572 3.152a1.777 1.777 0 010-2.612 2.04 2.04 0 012.767 0l4.042 3.815 6.59 6.219L24.601.539a2.039 2.039 0 012.766 0 1.773 1.773 0 010 2.612L15.354 14.494a2.041 2.041 0 01-2.767 0z"/></svg><svg viewBox="0 0 98 98" id="ico-camera" xmlns="http://www.w3.org/2000/svg"><circle cx="49" cy="49" r="49"/><g stroke-width="3"><path d="M67.7 30.23l3.61 8.54a6.05 6.05 0 01-3.22 7.94L29.42 63A2.59 2.59 0 0126 61.66l-4.66-11"/><path d="M63.74 39.39l-30.09 12.7a1.37 1.37 0 01-.8.09l-16.79-2.9a1.46 1.46 0 01-1.06-.86l-1.12-2.65a1.44 1.44 0 01.77-1.88l43-18.16a7.5 7.5 0 019.84 4l2.9 6.86M19 54.97l3.01 7.11m32.55-.93l-3-7 5.5-2.32 1.15 2.71m12.18 6.27l-8.01 3.38"/><path d="M62.35 61a4.23 4.23 0 11-5.54-2.25A4.23 4.23 0 0162.35 61zM76 48.51a2.68 2.68 0 012.68 2.68v10.46A2.68 2.68 0 0176 64.34a2.68 2.68 0 01-2.69-2.69V51.19A2.68 2.68 0 0176 48.51zM73.32 53.11L60 58.72"/></g></svg><svg viewBox="0 0 116 77.19" id="ico-car-phone" xmlns="http://www.w3.org/2000/svg"><g transform="translate(-711.652 -539.107)" opacity=".8"><path data-name="Path 267" d="M755.309 548.52h28.24a2.42 2.42 0 012.422 2.417v32.04a2.42 2.42 0 01-2.422 2.419h-47.243a2.42 2.42 0 01-2.421-2.419v-32.04a2.419 2.419 0 012.421-2.417h3.672"/><path data-name="Path 268" d="M779.766 560.773h-18.249v-6.027h18.249v2.634"/><path data-name="Line 249" d="M761.517 577.287h3.034"/><path data-name="Line 250" d="M769.125 577.287h3.034"/><path data-name="Line 251" d="M776.732 577.287h3.034"/><path data-name="Line 252" d="M761.517 572.122h3.034"/><path data-name="Line 253" d="M769.125 572.122h3.034"/><path data-name="Line 254" d="M776.732 572.122h3.034"/><path data-name="Line 255" d="M761.517 566.956h3.034"/><path data-name="Line 256" d="M769.125 566.956h3.034"/><path data-name="Line 257" d="M776.732 566.956h3.034"/><path data-name="Path 269" d="M739.979 548.521v-4.813A3.021 3.021 0 01743 540.69h9.285a3.02 3.02 0 013.022 3.018v32.439a3.02 3.02 0 01-3.022 3.019H743a3.021 3.021 0 01-3.023-3.019v-23.316"/><path data-name="Line 258" d="M794.679 603.29h-21.006"/><path data-name="Line 259" d="M733.549 595.359v7.93"/><path data-name="Path 270" d="M820.391 603.294h5.676v-13.125a6.192 6.192 0 00-2.827-5.191l-6.773-4.374-2.743-12.46a4.61 4.61 0 00-4.512-3.629h-21.789"/><path data-name="Line 260" d="M747.962 603.29h-14.413"/><path data-name="Path 271" d="M807.709 570.774l2.378 11.04h-9.015a5.026 5.026 0 01-5.029-5.022v-6.017z"/><path data-name="Line 261" d="M817.303 594.112h8.766"/><ellipse data-name="Ellipse 5" cx="9.232" cy="9.244" rx="9.232" ry="9.244" transform="rotate(-80.8 732.327 -133.183)"/><ellipse data-name="Ellipse 6" cx="9.233" cy="9.243" rx="9.233" ry="9.243" transform="rotate(-76.76 781.954 -195.53)"/><path data-name="Path 272" d="M806.762 603.294a2.834 2.834 0 11-2.833-2.83 2.832 2.832 0 012.833 2.83z"/><ellipse data-name="Ellipse 7" cx="2.834" cy="2.83" rx="2.834" ry="2.83" transform="translate(754.374 600.465)"/><path data-name="Line 262" d="M726.168 603.295h-12.933"/><path data-name="Line 263" d="M726.168 589.306h-8.722"/><path data-name="Line 264" d="M726.168 572.913h-4.361"/></g></svg><svg viewBox="0 0 104.14 68.06" id="ico-cctv" xmlns="http://www.w3.org/2000/svg"><g stroke-linecap="round" stroke-miterlimit="10" stroke-width="3.27"><path d="M85.48 9.57l5.6 13.25a9.42 9.42 0 01-5 12.33l-60 25.32a4 4 0 01-5.24-2.12l-7.23-17.11"/><path d="M79.33 23.79L32.65 43.5a2.32 2.32 0 01-1.25.14l-26-4.51a2.21 2.21 0 01-1.71-1.33L2 33.7a2.24 2.24 0 011.19-2.93L69.88 2.6a11.65 11.65 0 0115.27 6.19l4.5 10.65M9.92 47.96l4.67 11.03m50.5-1.45L60.46 46.6 69 43l1.78 4.21m23.41-2.15l-20.6 8.71m16.06 3.25l-12.44 5.24"/><path d="M77.17 57.29a6.56 6.56 0 11-8.6-3.49 6.56 6.56 0 018.6 3.48zM97 37.92h2.76a2.78 2.78 0 012.78 2.78v19a2.78 2.78 0 01-2.78 2.78H97a2.78 2.78 0 01-2.78-2.78v-19A2.79 2.79 0 0197 37.92z"/></g></svg><svg viewBox="0 0 90.018 82.416" id="ico-certificate" xmlns="http://www.w3.org/2000/svg"><g transform="translate(.2 .2)" stroke-linecap="round" stroke-linejoin="round" stroke-miterlimit="10" stroke-width="3"><path data-name="Line 480" d="M40.131 19.546h21.404"/><path data-name="Line 481" d="M25.628 19.546h7.368"/><path data-name="Line 482" d="M25.628 30.072h20.585"/><path data-name="Line 483" d="M25.628 40.715H35.92"/><path data-name="Line 484" d="M25.628 51.359H35.92"/><path data-name="Path 506" d="M14.75 66.1V14.867A13.577 13.577 0 0128.317 1.3h46.667v65.848a13.577 13.577 0 01-13.567 13.568H14.75"/><path data-name="Path 507" d="M74.868 14.75V1.3a13.452 13.452 0 0113.45 13.45h-7.719"/><path data-name="Path 508" d="M59.2 75.452a12.806 12.806 0 01-2.69-7.953v-.234H1.3v.234a13.278 13.278 0 0013.216 13.216h44.913"/><path data-name="Path 509" d="M61.535 53.935v3.74l-5.03-2.34-5.029 2.34v-9.24"/><circle data-name="Ellipse 124" cx="7.018" cy="7.018" r="7.018" transform="translate(49.487 35.803)"/></g></svg><svg viewBox="0 0 10.7 10.7" id="ico-check-blue" xmlns="http://www.w3.org/2000/svg"><circle cx="5.35" cy="5.35" r="5.2"/><path d="M4.7 7.85L2 5.15l.54-.55L4.7 6.72l3.57-3.57.55.54z"/></svg><svg viewBox="0 0 10.399 10.399" id="ico-check-pink" xmlns="http://www.w3.org/2000/svg"><g data-name="check" transform="translate(-831 -771)"><circle data-name="Ellipse 110" cx="5.199" cy="5.199" r="5.199" transform="translate(831 771)"/><path d="M835.552 778.702l-2.707-2.708.549-.549 2.158 2.119 3.571-3.57.549.549z"/></g></svg><svg viewBox="0 0 10.399 10.399" id="ico-check-white" xmlns="http://www.w3.org/2000/svg"><g data-name="check" transform="translate(-831 -771)"><circle data-name="Ellipse 110" cx="5.199" cy="5.199" r="5.199" transform="translate(831 771)"/><path d="M835.552 778.702l-2.707-2.708.549-.549 2.158 2.119 3.571-3.57.549.549z"/></g></svg><svg viewBox="0 0 11.469 7.91" id="ico-checkbox" xmlns="http://www.w3.org/2000/svg"><path d="M4.548 7.91L0 3.362l.923-.923L4.548 6l6-6 .923.923-2.642 2.665z"/></svg><svg viewBox="0 0 107.995 81.025" id="ico-clients" xmlns="http://www.w3.org/2000/svg"><g opacity=".8" stroke-linecap="round" stroke-width="3.165"><path data-name="Path 237" d="M16.319 18.32c2.809-.049 5.319 3.223 12.72 1.09 0 0 3.315-5.809-3.455-9.011-6.382-3.018-12.85-.507-14.882 2.03-1.625 2.028-.83 5.245-.448 6.451a8.537 8.537 0 01.277 1.093l.061.341a8.165 8.165 0 01.119 1.224c.22 6.962 4.117 13.373 8.895 13.373 4.917 0 8.9-6.8 8.9-13.99"/><path data-name="Path 238" d="M28.678 40.884a9.66 9.66 0 016.468 2.469q.247.222.48.46"/><path data-name="Path 239" d="M11.252 40.884a9.654 9.654 0 00-9.67 9.632v7.915a5.3 5.3 0 005.311 5.3h11.869"/><path data-name="Line 237" d="M24.963 34.911l1.012 5.288"/><path data-name="Line 238" d="M13.962 40.149l.937-6.062"/><path data-name="Path 240" d="M12.549 40.88l3.079 4.4a5.159 5.159 0 004.229 2.2 5.158 5.158 0 004.253-2.236l3-4.363"/><path data-name="Path 241" d="M92.129 17.316c-2.442.437-5.466 4.418-13.528 2.095 0 0-3.315-5.809 3.455-9.011 6.382-3.018 12.85-.507 14.882 2.03 1.625 2.028.83 5.245.448 6.451a8.537 8.537 0 00-.277 1.093l-.062.341a8.165 8.165 0 00-.119 1.224c-.22 6.962-4.117 13.373-8.895 13.373-4.917 0-8.9-6.8-8.9-13.99"/><path data-name="Path 242" d="M72.388 43.805a9.638 9.638 0 016.928-2.921"/><path data-name="Path 243" d="M96.749 40.88a9.651 9.651 0 019.664 9.638v8.606a4.611 4.611 0 01-4.616 4.6H89.239"/><path data-name="Line 239" d="M93.032 34.911l1.012 5.288"/><path data-name="Line 240" d="M82.03 40.149l.937-6.062"/><path data-name="Path 244" d="M80.618 40.88l3.079 4.4a5.159 5.159 0 004.229 2.2 5.158 5.158 0 004.253-2.236l3-4.363"/><path data-name="Path 245" d="M60.91 12.882c-3.485-1.145-6.883 5.668-18 3.169a3.136 3.136 0 01-2.33-2.125c-.762-2.551-1.136-7.392 5.353-10.461 8.615-4.074 17.347-.686 20.089 2.738 2.281 2.849 1.031 7.429.546 8.89a8.056 8.056 0 00-.283 1.116l-.165.914-.1 1.1c-.2 9.5-5.5 18.333-12.013 18.333-6.638 0-12.019-9.173-12.019-18.887"/><path data-name="Path 246" d="M82.014 79.443H31.069a5.078 5.078 0 01-5.084-5.072V62.458a17.87 17.87 0 0117.894-17.846h20.237a17.87 17.87 0 0117.9 17.846v4.535"/><path data-name="Path 247" d="M56.59 50.347l.429-1.88a3.157 3.157 0 00-3.085-3.855 3.158 3.158 0 00-3.107 3.751l.383 1.984"/><path data-name="Path 248" d="M59.069 62.331l-1.747-8.957a3.163 3.163 0 00-3.106-2.552h-.43a3.162 3.162 0 00-3.106 2.552l-1.749 8.957a3.149 3.149 0 001.072 3.02l1.963 1.643a3.171 3.171 0 004.067 0l1.963-1.643a3.153 3.153 0 001.073-3.02z"/><path data-name="Line 241" d="M61.328 39.593l.785 4.102"/><path data-name="Line 242" d="M45.895 43.627l1.266-8.184"/></g></svg><svg viewBox="0 0 18.28 3.66" id="ico-dots" xmlns="http://www.w3.org/2000/svg"><g data-name="ico-dots" class="awcls-1" transform="translate(-1364.41 -111.69)"><ellipse data-name="Ellipse 1" class="awcls-2" cx="1.81" cy="1.83" rx="1.81" ry="1.83" transform="translate(1364.41 111.69)"/><circle data-name="Ellipse 1 copy" class="awcls-2" cx="1.83" cy="1.83" r="1.83" transform="translate(1371.69 111.69)"/><circle data-name="Ellipse 1 copy 2" class="awcls-2" cx="1.83" cy="1.83" r="1.83" transform="translate(1379.03 111.69)"/></g></svg><svg viewBox="0 0 20.008 20.008" id="ico-download" xmlns="http://www.w3.org/2000/svg"><path d="M8.441 0h3.126a.936.936 0 01.938.938V7.5h3.427a.78.78 0 01.551 1.333l-5.943 5.95a.757.757 0 01-1.067 0L3.521 8.836A.78.78 0 014.072 7.5H7.5V.938A.936.936 0 018.441 0zm11.567 14.694v4.376a.936.936 0 01-.938.938H.938A.936.936 0 010 19.07v-4.376a.936.936 0 01.938-.938h5.733l1.915 1.915a2 2 0 002.837 0l1.915-1.915h5.732a.936.936 0 01.938.938zm-4.846 3.439a.782.782 0 10-.782.782.784.784 0 00.783-.782zm2.5 0a.782.782 0 10-.782.782.784.784 0 00.784-.782z"/></svg><svg viewBox="0 0 68.005 98.995" id="ico-employee" xmlns="http://www.w3.org/2000/svg"><g opacity=".8" stroke-linecap="round" stroke-width="3.143"><path data-name="Path 221" d="M44.602 39.404c-2.553 4.826-6.354 8.086-10.6 8.086-5.764 0-10.709-6.008-12.822-13.783"/><path data-name="Path 222" d="M48.827 18.414a10.931 10.931 0 00-2.51-6.428C43.143 8 35.517 3.808 25.552 8.56a11.424 11.424 0 00-6.713 10.72 4.732 4.732 0 003.721 4.688c11.717 2.544 15.262-1.83 19.44-4.041"/><path data-name="Path 223" d="M15.992 59.407l12.166 16.811a7.143 7.143 0 0011.7 0l9.57-13.619"/><path data-name="Path 224" d="M61.793 97.422H6.214a4.649 4.649 0 01-4.642-4.656V78.631a21.727 21.727 0 0121.7-21.76h21.472a21.728 21.728 0 0121.7 21.76v14.137a4.649 4.649 0 01-4.651 4.654z"/><path data-name="Path 225" d="M36.575 62.598l1.3-5.728h-7.742l1.1 5.728"/><path data-name="Path 226" d="M39.394 76.391l-2.583-13.319h-5.606L28.62 76.391"/><path data-name="Line 233" d="M42.486 51.026l.931 4.793"/><path data-name="Line 234" d="M25.531 55.819l1.192-10.763"/><path data-name="Rectangle 16" d="M51.003 77.147h6.268a2.542 2.542 0 012.542 2.542v.4a2.652 2.652 0 01-2.651 2.658h-8.527v-3.232a2.368 2.368 0 012.368-2.368z"/><path data-name="Rectangle 17" d="M16.19 24.224l3.01-.567 1.85 9.933-3.01.567a2.903 2.897-50.301 01-3.381-2.313l-.788-4.233a2.903 2.897-50.301 012.32-3.387z"/><path data-name="Rectangle 18" d="M50.03 34.124l-3.01-.562 1.845-9.935 3.01.562a2.898 2.902-34.435 012.322 3.381l-.786 4.235a2.898 2.902-34.435 01-3.38 2.319z"/><path data-name="Path 227" d="M14.495 24.263l-.486-3.933C12.778 10.365 22.05 1.572 32.061 1.572h3.577c9.726 0 18.706 8.325 17.924 18.048l-.336 4.176"/><path data-name="Path 228" d="M51.063 35.786l-.273 1.122a2.4 2.4 0 01-2.332 1.837H39.91"/></g></svg><svg viewBox="0 0 17.479 11.263" id="ico-form-mail" xmlns="http://www.w3.org/2000/svg"><path data-name="Path 162" d="M.578 1.054L7.86 4.966a1.9 1.9 0 00.879.195 1.9 1.9 0 00.88-.195l7.282-3.912C17.375.799 17.824 0 16.953 0H.525c-.87 0-.422.799.053 1.054zm16.525 1.942L9.62 6.908a1.662 1.662 0 01-.88.195 1.66 1.66 0 01-.879-.195L.378 2.996c-.379-.2-.376.034-.376.213v7.123a1.133 1.133 0 00.963.931h15.552a1.132 1.132 0 00.962-.931V3.209c-.001-.179.003-.411-.377-.213z"/></svg><svg viewBox="0 0 15.998 15.999" id="ico-form-name" xmlns="http://www.w3.org/2000/svg"><path d="M0 16v-2c0-2.2 3.6-4 8-4s8 1.8 8 4v2zM4 4a4 4 0 114 4 4 4 0 01-4-4z"/></svg><svg viewBox="0 0 19.064 19.064" id="ico-form-phone" xmlns="http://www.w3.org/2000/svg"><path d="M18.254 12.82a1.893 1.893 0 00-.84-.585q-.21-.121-.597-.332t-.7-.386q-.317-.176-.59-.342a12.66 12.66 0 00-.277-.193 3.16 3.16 0 00-.393-.239.725.725 0 00-.314-.077.922.922 0 00-.553.315 5.329 5.329 0 00-.608.684 6.718 6.718 0 01-.587.686.842.842 0 01-.507.316.753.753 0 01-.25-.055c-.101-.04-.175-.07-.225-.094s-.14-.078-.268-.157-.195-.12-.21-.126A10.945 10.945 0 016.82 7.718c-.008-.015-.05-.085-.127-.21s-.128-.213-.157-.267a2.414 2.414 0 01-.093-.226.74.74 0 01-.055-.25.841.841 0 01.315-.508 6.719 6.719 0 01.685-.586 5.329 5.329 0 00.686-.608.916.916 0 00.314-.552.719.719 0 00-.077-.315 3.129 3.129 0 00-.237-.392c-.106-.154-.175-.25-.193-.275q-.166-.277-.343-.592t-.386-.7a24.8 24.8 0 00-.331-.596A1.9 1.9 0 006.234.8a.613.613 0 00-.231-.034 3.668 3.668 0 00-.779.111 4.31 4.31 0 00-.757.233 2.953 2.953 0 00-1.17 1.346 4.092 4.092 0 00-.525 2.634 4.78 4.78 0 00.138.635q.1.353.16.524c.04.114.117.32.227.613s.175.474.198.54a10 10 0 00.916 1.932 16.381 16.381 0 002.38 2.922 16.378 16.378 0 002.921 2.38 10 10 0 001.932.916c.067.023.247.088.541.199s.499.186.613.226.289.094.524.16a4.727 4.727 0 00.635.138 4.148 4.148 0 00.58.039 4.281 4.281 0 002.055-.563 2.964 2.964 0 001.347-1.17 4.445 4.445 0 00.233-.757 3.765 3.765 0 00.111-.779.617.617 0 00-.034-.232z"/></svg><svg viewBox="0 0 118 90" id="ico-local" xmlns="http://www.w3.org/2000/svg"><g stroke-linecap="round" stroke-linejoin="round"><path d="M81.94 3.76v29.08a1.39 1.39 0 01-1.39 1.39H36.29a1.39 1.39 0 01-1.39-1.39V3a1.4 1.4 0 011.39-1.4h43.48a2.18 2.18 0 012.17 2.18zM58.42 40.64v-6.41M35.33 26.49h36.74M87.38 49.38v-8.74H29.46v8.74"/><path d="M54.06 51.53V80.6a1.39 1.39 0 01-1.39 1.4H8.41A1.4 1.4 0 017 80.6V50.75a1.4 1.4 0 011.39-1.4h43.5a2.17 2.17 0 012.17 2.18zM30.54 88.41V82M7.45 74.26h36.74M111 51.53V80.6a1.4 1.4 0 01-1.39 1.4H65.33a1.4 1.4 0 01-1.39-1.4V50.75a1.4 1.4 0 011.39-1.4h43.48a2.18 2.18 0 012.19 2.18zM87.46 88.41V82M64.37 74.26h36.74m15.31 14.15H1.58"/></g></svg><svg viewBox="0 0 7.1 9.2" id="ico-location" xmlns="http://www.w3.org/2000/svg"><path d="M3.508-.024c-1.6 0-2.9 1.3-2.9 2.9 0 2.7 2.9 6.3 2.9 6.3s2.9-3.6 2.9-6.3c0-1.6-1.3-2.9-2.9-2.9zm0 4.4c-.9 0-1.5-.7-1.5-1.5 0-.9.7-1.5 1.5-1.5.9 0 1.5.7 1.5 1.5.1.9-.6 1.5-1.5 1.5z"/></svg><svg viewBox="0 0 9.72 6.264" id="ico-mail" xmlns="http://www.w3.org/2000/svg"><path data-name="Path 162" d="M.321.586l4.05 2.176a1.057 1.057 0 00.489.108 1.057 1.057 0 00.49-.108L9.4.586C9.664.444 9.913 0 9.429 0H.293c-.485 0-.236.445.028.586zm9.19 1.08L5.349 3.842a.924.924 0 01-.49.108.924.924 0 01-.489-.108L.208 1.666c-.21-.11-.209.019-.209.118v3.961a.63.63 0 00.536.518h8.649a.63.63 0 00.535-.518V1.784c.001-.099.003-.228-.211-.118z"/></svg><svg viewBox="0 0 76.033 89.006" id="ico-map-location" xmlns="http://www.w3.org/2000/svg"><g transform="translate(.2 .2)" stroke-linecap="round" stroke-miterlimit="10"><path data-name="Path 479" d="M15.594 24.724h-9.97A4.306 4.306 0 001.3 29.048v45.166a4.306 4.306 0 004.324 4.324h64.385a4.306 4.306 0 004.324-4.324V29.048a4.306 4.306 0 00-4.324-4.324h-15.5"/><path data-name="Path 480" d="M25.808 32.531h-16.7v38.078h57.418V32.531H55.715"/><path data-name="Path 481" d="M47.306 83.703v3.6H28.327v-8.765h18.979"/><path data-name="Path 482" d="M54.514 18a16.82 16.82 0 01-1.682 7.327c-2.643 5.523-15.012 22.7-15.012 22.7S25.805 30.97 23.042 25.684A16.679 16.679 0 1154.514 18z"/><circle data-name="Ellipse 123" cx="6.847" cy="6.847" r="6.847" transform="translate(30.97 11.15)"/><path data-name="Path 483" d="M18.237 50.91c0 2.883 1.682 9.249 9.249 9.369 6.967.12 14.174-9.129 20.421-9.129 8.168 0 10.21 5.045 10.21 10.21"/><path data-name="Line 460" d="M25.805 87.306h24.024"/></g></svg><svg viewBox="0 0 79.016 75.007" id="ico-pack-money" xmlns="http://www.w3.org/2000/svg"><g stroke-linecap="round" stroke-linejoin="round"><path data-name="Path 201" d="M53.665 18.259a1.873 1.873 0 11-1.872-1.863 1.868 1.868 0 011.872 1.863z"/><path data-name="Path 202" d="M29.164 34.444a1.872 1.872 0 11-1.872-1.863 1.867 1.867 0 011.872 1.863z"/><path data-name="Path 203" d="M32.212 14.392L51.469 1.328l25.7 16.377-20.058 13.6"/><path data-name="Path 204" d="M22.043 21.287l-20.21 13.7 25.7 16.377L45.484 39.19"/><path data-name="Path 205" d="M38.789 18.459l12.8-8.683 12.735 8.113-8.848 6"/><path data-name="Path 206" d="M23.465 28.842l-8.8 5.963 12.745 8.113 12.5-8.474"/><path data-name="Path 207" d="M1.833 42.415l25.7 16.387 19.177-13"/><path data-name="Line 227" d="M77.171 25.143L58.907 37.527"/><path data-name="Path 208" d="M1.833 49.853l25.7 16.387 18.582-12.6"/><path data-name="Line 228" d="M77.171 32.581L58.907 44.965"/><path data-name="Path 209" d="M1.833 57.292l25.7 16.387 20.23-13.719"/><path data-name="Line 229" d="M77.171 40.019L58.907 52.403"/><path data-name="Path 210" d="M22.365 21.547l25.4 16.174v22.522a1.245 1.245 0 001.962 1.012l7.43-5.219a1.235 1.235 0 00.527-1.012V31.669L30.448 14.322a1.775 1.775 0 00-1.96.036l-6.173 4.263a1.754 1.754 0 00.05 2.926z"/></g></svg><svg viewBox="0 0 106 89" id="ico-pc" xmlns="http://www.w3.org/2000/svg"><g stroke-linecap="round" stroke-linejoin="round"><path d="M96 66.29h5.64a2.77 2.77 0 002.76-2.76v-58a3.9 3.9 0 00-3.9-3.91H15.34a4.17 4.17 0 00-4.17 4.18V10"/><path d="M94.84 14.3v57.64a2.77 2.77 0 01-2.76 2.76H4.34a2.75 2.75 0 01-2.76-2.76V12.76A2.77 2.77 0 014.34 10h86.2a4.32 4.32 0 014.3 4.3zM60.45 87.42H36V74.71h24.45m.69 6.35v-6.35M27.2 87.42h42.01M1.58 66.29h84.35"/><path d="M11.18 18.98h14.03m18.56 0h4.12m8.02 0h4.12m8.01 0h4.13m8.01 0h4.12" stroke-width="3.15"/><path d="M11.18 26.09H84.3v17.44H11.18zm0 24.16h17.57v8.13H11.18zm55.56 0h17.57v8.13H66.74zm-28.41 0h18.82v8.13H38.33z"/></g></svg><svg viewBox="0 0 91.01 78.99" id="ico-phone" xmlns="http://www.w3.org/2000/svg"><g stroke-linecap="round" stroke-width="3.14"><path d="M37.71 14.86h47.64A4.08 4.08 0 0189.43 19v54.31a4.08 4.08 0 01-4.08 4.1H5.66a4.1 4.1 0 01-4.09-4.1V19a4.1 4.1 0 014.09-4.1h6.19"/><path d="M79 35.64H48.18V25.42H79v4.47M48.18 63.66h5.12m7.72 0h5.11m7.72 0h5.12M48.18 54.9h5.12m7.72 0h5.11m7.72 0h5.12m-30.79-8.77h5.12m7.72 0h5.11m7.72 0h5.12M11.85 14.86V6.7A5.1 5.1 0 0117 1.58h15.61a5.09 5.09 0 015.1 5.12v55a5.1 5.1 0 01-5.1 5.12H17a5.11 5.11 0 01-5.1-5.12V22.17"/></g></svg><svg viewBox="0 0 82 82" id="ico-qualities-1" xmlns="http://www.w3.org/2000/svg"><g transform="translate(-1998.922 -104.115)" stroke-linecap="round" stroke-linejoin="round" stroke-width="3.177"><circle data-name="Ellipse 3" cx="24.429" cy="24.429" transform="translate(2015.493 120.686)" r="24.429"/><circle data-name="Ellipse 4" cx="39.411" cy="39.411" transform="translate(2000.51 105.703)" r="39.411"/><path data-name="Line 139" d="M2078.164 138.095h-14.534"/><path data-name="Line 140" d="M2078.163 152.122h-10.9"/><path data-name="Line 141" d="M2012.593 138.095h-10.913"/><path data-name="Line 142" d="M2016.202 152.122h-14.522"/><path data-name="Line 143" d="M2046.935 183.35v-14.534"/><path data-name="Line 144" d="M2032.908 183.35v-10.9"/><path data-name="Line 145" d="M2046.935 117.779v-10.913"/><path data-name="Line 146" d="M2032.908 121.388v-14.522"/><path data-name="Path 82" d="M2075.531 119.409a3.293 3.293 0 000-4.658l-5.261-5.259a3.292 3.292 0 00-4.657 0l-3.233 3.233"/><path data-name="Path 83" d="M2004.313 170.789a3.3 3.3 0 000 4.658l5.261 5.261a3.3 3.3 0 004.658 0l3.233-3.233"/><path data-name="Path 84" d="M2065.613 180.708a3.294 3.294 0 004.657 0l5.261-5.261a3.293 3.293 0 000-4.658l-3.233-3.233"/><path data-name="Path 85" d="M2014.232 109.491a3.293 3.293 0 00-4.658 0l-5.261 5.259a3.3 3.3 0 000 4.658l3.233 3.233"/></g></svg><svg viewBox="0 0 75.99 92" id="ico-qualities-2" xmlns="http://www.w3.org/2000/svg"><g opacity=".9" stroke-linecap="round" stroke-width="3.15"><path d="M23.66 17.37c0 14.37 2.39 27.28 14.33 26.83s15.16-10.53 15.6-22a16 16 0 01.26-2.4v-.26a15.69 15.69 0 01.54-2c.67-2.05 1-7.7-2-10.92C49.14 3 38.25-1.29 27.26 4.19c-9.6 4.79-5.85 11-3.6 13.18 2.9 2.77 13.2 3.59 21.6-3.6M17.1 54.82l14.33 20.29A8.05 8.05 0 0042.64 77a8.18 8.18 0 001.93-1.92l10.74-15.19"/><path d="M74.42 78.44v-15.1a9.86 9.86 0 00-9.88-9.85h-51.4A11.54 11.54 0 001.58 65v18a7.35 7.35 0 007.36 7.35h56.72"/><path d="M40.88 59.89l1.46-6.4h-8.69l1.23 6.4M44.05 75.3l-2.9-14.88h-6.3L32 75.3m15.52-27.15l.14 5.15m-19.2 0V40.12"/></g></svg><svg viewBox="0 0 106.99 73.01" id="ico-qualities-3" xmlns="http://www.w3.org/2000/svg"><g opacity=".9" stroke-linecap="round" stroke-linejoin="round"><path d="M53.06 32.23v-19L41.36 1.58H1.58v69.85h35.06"/><path d="M41.35 9.08v-7.5l11.7 11.65h-9.33"/><path d="M41.35 7.4v5.83h2.37m26.03 26.91h17.9v31.29H44.13V40.14h25.62"/><path d="M51.48 46.53L66 56.29l14.68-9.87M8.79 27.28h29.33M8.79 34.44h29.33M8.79 41.6h14.66M58.95 13.94h28.8v18.29h-28.8zm41.45 49.25l-2.8 5.08h-.87l-2.8-5.08v-40h6.48zm-3.24 5.08v3.07m8.25-32.49V28.3h-4.1M18.59 15.16a4.22 4.22 0 10-4.24 4.2 4.22 4.22 0 004.22-4.2zm62.87 46.66a3.14 3.14 0 10-3.15 3.12 3.13 3.13 0 003.15-3.12zM65.19 19.99h12.44m-12.44 5.62H81.5"/></g></svg><svg viewBox="0 0 108 62.01" id="ico-qualities-4" xmlns="http://www.w3.org/2000/svg"><g opacity=".9"><path d="M19.04 7.1l3.32.02m7.16.02l3.33.02m7.16.02l3.32.02M12.4 12.68l76.28.49m-76.57 45.7l.36-57.3 84.78.55-.37 50.12m-12.16 7.1A30.23 30.23 0 1024.27 59m52.24-7.52a23.34 23.34 0 00-44-.11m27.71 7.81a5.73 5.73 0 00-11.45-.07m14.78-8.88l-4.09 4.03m-4.82-18.35l-.02 3.07m16.46 3.84l-2.19 2.16m-28.6-.18l-2.17-2.19m32.96.21l-2.19 2.16m2.19-2.16l-2.19 2.16M1.58 60.43h104.84"/><path d="M19.04 7.1l3.32.02m7.17.02l3.32.02m7.16.02l3.32.02M12.4 12.68l76.27.49m-76.56 45.7l.36-57.3 84.78.55-.37 50.12m-12.16 7.1A30.23 30.23 0 1024.27 59m52.24-7.52a23.34 23.34 0 00-44-.11m27.71 7.81a5.73 5.73 0 00-11.45-.07m14.78-8.88l-4.09 4.03m-4.82-18.35l-.02 3.07m16.46 3.84l-2.19 2.16m-28.6-.18l-2.17-2.19m32.96.21l-2.19 2.16m2.19-2.16l-2.19 2.16M1.58 60.43h104.84" opacity=".8"/></g></svg><svg viewBox="0 0 97.01 81.99" id="ico-qualities-5" xmlns="http://www.w3.org/2000/svg"><g opacity=".9"><path d="M89.48 66.05h3.22a2.76 2.76 0 002.74-2.76V5.46a3.89 3.89 0 00-3.87-3.89H14.05a4.15 4.15 0 00-4.14 4.17v1.82"/><path d="M75.19 80.42h5.6a2.75 2.75 0 002.74-2.75V16.24a3.89 3.89 0 00-3.87-3.89H5.71a4.16 4.16 0 00-4.14 4.16v4.81"/><g stroke-linecap="round" stroke-linejoin="round"><path d="M42.16 73.25v5.46M2.67 80.1h62.31m-45.3-7.07h44.76M62 53.38h8.5a4.25 4.25 0 004.23-4.26v-9.94H9.8v9.94a4.26 4.26 0 004.2 4.26h8.17M19.68 53.38h44.76m1.29-8.52h2.39m-51.26 0h2.39m4.43 0h2.39m4.43 0h2.39m4.43 0h2.39M62 33.72h8.5a4.25 4.25 0 004.23-4.26v-9.94H9.8v9.94a4.26 4.26 0 004.2 4.26h8.17M19.68 33.72h44.76m1.29-8.52h2.39m-51.26 0h2.39m4.43 0h2.39m4.43 0h2.39m4.43 0h2.39"/><g><path d="M62 73h8.5a4.24 4.24 0 004.23-4.25v-9.9H9.8v9.93A4.24 4.24 0 0014 73h8.17M9.8 58.85h64.93m-57.87 5.67h2.39m4.43 0h2.39m4.43 0h2.39m4.43 0h2.39m24.83 0h2.39"/></g></g><g opacity=".8"><path d="M89.48 66.05h3.22a2.76 2.76 0 002.74-2.76V5.46a3.89 3.89 0 00-3.87-3.89H14.05a4.15 4.15 0 00-4.14 4.17v1.82"/><path d="M75.19 80.42h5.6a2.75 2.75 0 002.74-2.75V16.24a3.89 3.89 0 00-3.87-3.89H5.71a4.16 4.16 0 00-4.14 4.16v4.81m40.59 51.93v5.46M2.67 80.1h62.31m-45.3-7.07h44.76"/><path d="M62 53.38h8.5a4.25 4.25 0 004.23-4.26v-9.94H9.8v9.94a4.26 4.26 0 004.2 4.26h8.17m-2.49 0h44.76m1.29-8.52h2.39m-51.26 0h2.39m4.43 0h2.39m4.43 0h2.39m4.43 0h2.39M62 33.72h8.5a4.25 4.25 0 004.23-4.26v-9.94H9.8v9.94a4.26 4.26 0 004.2 4.26h8.17m-2.49 0h44.76m1.29-8.52h2.39m-51.26 0h2.39m4.43 0h2.39m4.43 0h2.39m4.43 0h2.39M62 73h8.5a4.24 4.24 0 004.23-4.25v-9.9H9.8v9.93A4.24 4.24 0 0014 73h8.17M9.8 58.85h64.93m-57.87 5.67h2.39m4.43 0h2.39m4.43 0h2.39m4.43 0h2.39m24.83 0h2.39"/></g></g></svg><svg viewBox="0 0 83.012 95.003" id="ico-qualities-6" xmlns="http://www.w3.org/2000/svg"><g opacity=".9" stroke-linecap="round" stroke-linejoin="round"><path data-name="Path 127" d="M14.255 8.697l.817 8.407h-1.677A11.79 11.79 0 001.644 29.936l.023.261a25.859 25.859 0 0016.577 21.868 6.371 6.371 0 013.091 2.511 23.6 23.6 0 0015.44 10.392v10.661a5.693 5.693 0 01-2.617 4.791"/><path data-name="Line 225" d="M71.677 1.591H10.658"/><path data-name="Path 128" d="M48.177 80.419a5.692 5.692 0 01-2.616-4.791V64.967a23.6 23.6 0 0015.282-10.156 6.547 6.547 0 013.308-2.525 25.856 25.856 0 0017.193-22.092l.023-.262a11.79 11.79 0 00-11.752-12.83h-2.352l.817-8.407"/><path data-name="Path 129" d="M21.071 93.411v-6.642h40.194v6.642"/><path data-name="Path 130" d="M41.168 19.66l3.572 8.586 9.36.8-7.152 5.988 2.213 9.2-7.992-5-7.992 5 2.213-9.2-7.152-5.988 9.359-.8z"/><path data-name="Path 131" d="M17.667 43.811l-1.99-20.474h-2.219a5.535 5.535 0 00-5.521 5.975l.041.5a19.221 19.221 0 009.833 15.271q-.088-.627-.144-1.272z"/><path data-name="Path 132" d="M69.553 23.339h-2.9l-1.989 20.474q-.07.84-.2 1.662a19.228 19.228 0 0010.565-15.658l.041-.5a5.535 5.535 0 00-5.517-5.978z"/></g></svg><svg viewBox="0 0 88.002 100.002" id="ico-reverse-phone" xmlns="http://www.w3.org/2000/svg"><g opacity=".8" stroke-linecap="round" stroke-miterlimit="10" stroke-width="3.166"><path data-name="Path 261" d="M35.942 46.061c-.822-1.314-.673-1.683-.673-1.683l2.45-3.561a2.224 2.224 0 00-.218-2.9l-5.078-5.052a2.071 2.071 0 00-2.733-.168l-2.206 1.71a2.462 2.462 0 00-.5.514c-4.352 6.081 1.754 15.658 9.28 23.151 7.321 7.29 17.231 13.784 23.213 9.141a2.532 2.532 0 00.447-.46l1.724-2.253a2.082 2.082 0 00-.185-2.739l-5.076-5.05a2.217 2.217 0 00-2.9-.2l-3.543 2.473s-1.416.514-8.3-6.337a53.251 53.251 0 01-4.908-5.439 17.81 17.81 0 01-.8-1.148"/><path data-name="Path 262" d="M29.585 78.518a32.2 32.2 0 0114.712-60.777l.006 3.611 10.3-8.856-10.332-9.01.006 3.611a42.845 42.845 0 00-19.868 80.725"/><path data-name="Path 263" d="M58.306 21.424a32.2 32.2 0 01-14.657 60.837V78.65l-10.317 8.836 10.316 9.027v-3.611A42.844 42.844 0 0063.424 12.09"/></g></svg><svg viewBox="0 0 87.056 98.759" id="ico-reverse-planet" xmlns="http://www.w3.org/2000/svg"><g stroke-linecap="round" stroke-miterlimit="10" stroke-width="3"><path data-name="Path 484" d="M64.452 49.917a20.057 20.057 0 01-5.842 14.55 20.572 20.572 0 01-35.411-13.954 20.012 20.012 0 014.888-13.592 20.579 20.579 0 0130.88-.358 19.442 19.442 0 015.485 13.354z"/><path data-name="Path 485" d="M37.388 66.129a26.516 26.516 0 01-5.246-15.855c-.119-11.326 7.273-20.626 11.446-20.745 3.577 0 9.777 6.677 11.446 15.857"/><path data-name="Path 486" d="M55.511 50.036c.119 11.326-6.915 20.626-11.446 20.745"/><path data-name="Path 487" d="M59.088 36.325a28.981 28.981 0 01-6.08 2.74 36.968 36.968 0 01-9.3 1.55 37.4 37.4 0 01-9.3-1.19 26.9 26.9 0 01-6.2-2.5 20.3 20.3 0 0115.38-7.16 20.013 20.013 0 0115.5 6.56z"/><path data-name="Path 488" d="M58.611 64.462a20.583 20.583 0 01-29.33.362 31.77 31.77 0 015.723-2.385 29.753 29.753 0 018.823-1.315 29.256 29.256 0 018.823 1.192 23.128 23.128 0 015.961 2.146z"/><path data-name="Path 489" d="M43.588 29.529l.119 10.969.119 9.657.119 10.85.119 9.3"/><path data-name="Line 461" d="M27.492 50.274l36.006-.358"/><path data-name="Path 490" d="M29.162 77.699a31.909 31.909 0 0114.664-60.212v3.577l10.253-8.823-10.253-8.942v3.577A42.284 42.284 0 001.501 49.32a42.152 42.152 0 0022.534 37.679"/><path data-name="Path 491" d="M57.658 21.183a31.871 31.871 0 01-14.547 60.209v-3.577l-10.253 8.704 10.253 8.945v-3.58a42.485 42.485 0 0019.673-80.12"/></g></svg><svg viewBox="0 0 88.002 100.002" id="ico-revese-phone" xmlns="http://www.w3.org/2000/svg"><g opacity=".8" stroke-linecap="round" stroke-miterlimit="10" stroke-width="3.166"><path data-name="Path 261" d="M35.942 46.061c-.822-1.314-.673-1.683-.673-1.683l2.45-3.561a2.224 2.224 0 00-.218-2.9l-5.078-5.052a2.071 2.071 0 00-2.733-.168l-2.206 1.71a2.462 2.462 0 00-.5.514c-4.352 6.081 1.754 15.658 9.28 23.151 7.321 7.29 17.231 13.784 23.213 9.141a2.532 2.532 0 00.447-.46l1.724-2.253a2.082 2.082 0 00-.185-2.739l-5.076-5.05a2.217 2.217 0 00-2.9-.2l-3.543 2.473s-1.416.514-8.3-6.337a53.251 53.251 0 01-4.908-5.439 17.81 17.81 0 01-.8-1.148"/><path data-name="Path 262" d="M29.585 78.518a32.2 32.2 0 0114.712-60.777l.006 3.611 10.3-8.856-10.332-9.01.006 3.611a42.845 42.845 0 00-19.868 80.725"/><path data-name="Path 263" d="M58.306 21.424a32.2 32.2 0 01-14.657 60.837V78.65l-10.317 8.836 10.316 9.027v-3.611A42.844 42.844 0 0063.424 12.09"/></g></svg><svg viewBox="0 0 87.546 77.572" id="ico-safe" xmlns="http://www.w3.org/2000/svg"><g stroke-width="3" stroke-linecap="round" stroke-linejoin="round" stroke-miterlimit="10"><path data-name="Rectangle 289" d="M86.047 1.5v69.075H1.501V1.5z"/><path data-name="Path 498" d="M79.481 61.696H10.528V10.53h66.516v7.553"/><path data-name="Rectangle 290" d="M74.121 18.083h5.969v8.528h-5.969z"/><path data-name="Rectangle 291" d="M74.121 45.493h5.969v8.528h-5.969z"/><path data-name="Path 499" d="M47.933 31.971a5.858 5.858 0 11-8.284 0 5.809 5.809 0 018.284 0z"/><path data-name="Path 500" d="M37.451 52.925a16.34 16.34 0 01-6.335-4.142 17.908 17.908 0 0112.67-30.578"/><path data-name="Path 501" d="M49.999 19.179a18.778 18.778 0 016.579 4.142 17.908 17.908 0 01-12.67 30.578"/><path data-name="Line 471" d="M31.482 23.809l1.827 1.706"/><path data-name="Line 472" d="M54.263 46.59l1.827 1.827"/><path data-name="Line 473" d="M56.09 23.809l-1.827 1.706"/><path data-name="Line 474" d="M33.309 46.59l-1.827 1.827"/><path data-name="Line 475" d="M43.786 18.814v2.436"/><path data-name="Line 476" d="M43.786 50.976v2.436"/><path data-name="Line 477" d="M61.085 36.113h-2.436"/><path data-name="Line 478" d="M28.923 36.113h-2.436"/><path data-name="Path 502" d="M19.421 76.071h-8.893v-5.36h8.893"/><path data-name="Path 503" d="M77.044 76.071h-8.893v-5.36h8.893"/><path data-name="Line 479" d="M77.045 33.311v12.182"/></g></svg><svg viewBox="0 0 90.018 82.416" id="ico-scroll-document" xmlns="http://www.w3.org/2000/svg"><g transform="translate(.2 .2)" stroke-linecap="round" stroke-linejoin="round" stroke-miterlimit="10" stroke-width="3"><path data-name="Line 480" d="M40.131 19.546h21.404"/><path data-name="Line 481" d="M25.628 19.546h7.368"/><path data-name="Line 482" d="M25.628 30.072h20.585"/><path data-name="Line 483" d="M25.628 40.715H35.92"/><path data-name="Line 484" d="M25.628 51.359H35.92"/><path data-name="Path 506" d="M14.75 66.1V14.867A13.577 13.577 0 0128.317 1.3h46.667v65.848a13.577 13.577 0 01-13.567 13.568H14.75"/><path data-name="Path 507" d="M74.868 14.75V1.3a13.452 13.452 0 0113.45 13.45h-7.719"/><path data-name="Path 508" d="M59.2 75.452a12.806 12.806 0 01-2.69-7.953v-.234H1.3v.234a13.278 13.278 0 0013.216 13.216h44.913"/><path data-name="Path 509" d="M61.535 53.935v3.74l-5.03-2.34-5.029 2.34v-9.24"/><circle data-name="Ellipse 124" cx="7.018" cy="7.018" r="7.018" transform="translate(49.487 35.803)"/></g></svg><svg viewBox="0 0 68.42 92.198" id="ico-shema-document" xmlns="http://www.w3.org/2000/svg"><g stroke-linecap="round" stroke-linejoin="round" stroke-miterlimit="10" stroke-width="3"><path data-name="Path 492" d="M66.92 28.054V90.7H1.5V1.5h50.574L66.92 16.346v4.225"/><path data-name="Path 493" d="M52.074 11.035V1.5L66.92 16.346H55.092"/><path data-name="Path 494" d="M52.074 8.984v7.363h3.018"/><path data-name="Rectangle 286" d="M12.363 23.226h43.694v17.019H12.363z"/><path data-name="Line 463" d="M12.363 49.298l43.694.121"/><path data-name="Line 464" d="M12.363 52.436v-1.448"/><path data-name="Line 465" d="M56.057 52.437v-3.018"/><path data-name="Line 466" d="M34.21 52.436v-2.052"/><path data-name="Line 467" d="M34.21 43.625v-2.052"/><path data-name="Line 468" d="M34.21 73.438V66.92"/><path data-name="Line 469" d="M56.057 73.438V66.92"/><path data-name="Rectangle 287" d="M8.018 58.23h8.691v8.691H8.018z"/><path data-name="Path 495" d="M34.21 82.129a4.327 4.327 0 01-4.345-4.346 4.327 4.327 0 014.345-4.345 4.327 4.327 0 014.345 4.345 4.327 4.327 0 01-4.345 4.346z"/><path data-name="Path 496" d="M56.057 82.129a4.327 4.327 0 01-4.345-4.346 4.327 4.327 0 014.345-4.345 4.327 4.327 0 014.345 4.345 4.327 4.327 0 01-4.345 4.346z"/><path data-name="Rectangle 288" d="M29.865 58.23h30.538v8.691H29.865z"/><path data-name="Line 470" d="M16.95 62.575h6.88"/></g></svg><svg viewBox="0 0 109.653 64.171" id="ico-slice" xmlns="http://www.w3.org/2000/svg"><path data-name="Path 511" d="M48.54 27.466L11.115 8.236a23.819 23.819 0 0127.366-4.142l62.276 31.951"/><path data-name="Path 512" d="M93.8 62.674H15.849A14.362 14.362 0 011.5 48.323a14.362 14.362 0 0114.349-14.349H93.8a14.362 14.362 0 0114.349 14.349A14.458 14.458 0 0193.8 62.674z"/><path data-name="Path 513" d="M96.91 48.323a2.515 2.515 0 11-2.514-2.515 2.592 2.592 0 012.514 2.515z"/><path data-name="Line 485" d="M36.706 12.082l26.626 13.905"/><path data-name="Line 486" d="M21.026 33.974v6.952"/><path data-name="Line 487" d="M31.381 33.974v6.952"/><path data-name="Line 488" d="M41.735 33.974v6.952"/><path data-name="Line 489" d="M52.09 33.974v6.952"/><path data-name="Line 490" d="M62.444 33.974v6.952"/><path data-name="Line 491" d="M72.799 33.974v6.952"/><path data-name="Line 492" d="M83.154 33.974v6.952"/></svg><svg viewBox="0 0 77.005 70.995" id="ico-stack-money" xmlns="http://www.w3.org/2000/svg"><g opacity=".8" stroke-linecap="round" stroke-miterlimit="10" stroke-width="3.153"><path data-name="Path 279" d="M34.782 30.53c0 5.016-7.433 9.081-16.6 9.081s-16.6-4.065-16.6-9.081 7.433-9.082 16.6-9.082c5.109 0 9.679 1.262 12.724 3.248"/><path data-name="Path 280" d="M34.782 50.403c0 5.015-7.433 9.081-16.6 9.081s-16.6-4.066-16.6-9.081"/><path data-name="Path 281" d="M34.782 31.877v28.461c0 5.015-7.433 9.081-16.6 9.081s-16.6-4.066-16.6-9.081V40.466c0 5.016 7.433 9.082 16.6 9.082s16.6-4.066 16.6-9.082"/><path data-name="Path 282" d="M75.431 40.466c0 5.016-7.433 9.082-16.6 9.082s-16.6-4.066-16.6-9.082"/><path data-name="Path 283" d="M42.224 30.53c0 5.016 7.433 9.081 16.6 9.081s16.6-4.065 16.6-9.081"/><path data-name="Path 284" d="M75.431 10.658c0 5.016-7.433 9.082-16.6 9.082s-16.6-4.066-16.6-9.082 7.433-9.081 16.6-9.081c5.278 0 9.981 1.347 13.023 3.447"/><path data-name="Path 285" d="M75.431 50.403c0 5.015-7.433 9.081-16.6 9.081s-16.6-4.066-16.6-9.081"/><path data-name="Path 286" d="M75.431 13.086v47.252c0 5.015-7.433 9.081-16.6 9.081s-16.6-4.066-16.6-9.081V20.594c0 5.015 7.433 9.081 16.6 9.081s16.6-4.066 16.6-9.081"/></g></svg><svg viewBox="0 0 98 98" id="ico-tariff-pc" xmlns="http://www.w3.org/2000/svg"><g transform="translate(-681.886 -1468)"><circle data-name="Ellipse 2 copy" cx="49" cy="49" r="49" transform="translate(681.886 1468)"/><g data-name="Group 122" stroke-linecap="round" stroke-linejoin="round" stroke-width="2.632"><path data-name="Path 462" d="M758.685 1497.549v34.263a1.643 1.643 0 01-1.643 1.643h-52.309a1.643 1.643 0 01-1.643-1.643v-35.184a1.643 1.643 0 011.643-1.643h51.386a2.564 2.564 0 012.566 2.564z"/><path data-name="Line 446" d="M730.887 1541.01v-7.555"/><path data-name="Line 447" d="M703.602 1524.334h43.419"/><path data-name="Line 448" d="M709.602 1541.334h43.419"/></g></g></svg><svg viewBox="0 0 98 98" id="ico-tariff-pc-white" xmlns="http://www.w3.org/2000/svg"><g transform="translate(-380.886 -1468)"><circle data-name="Ellipse 2" cx="49" cy="49" r="49" transform="translate(380.886 1468)"/><g data-name="Group 121" stroke-linecap="round" stroke-linejoin="round" stroke-width="2.632"><path data-name="Path 461" d="M457.685 1497.549v34.263a1.643 1.643 0 01-1.643 1.643h-52.309a1.643 1.643 0 01-1.643-1.643v-35.184a1.643 1.643 0 011.643-1.643h51.386a2.564 2.564 0 012.566 2.564z"/><path data-name="Line 443" d="M429.887 1541.01v-7.555"/><path data-name="Line 444" d="M402.602 1524.334h43.419"/><path data-name="Line 445" d="M408.602 1541.334h43.419"/></g></g></svg><svg viewBox="0 0 98 98" id="ico-tariff-phone" xmlns="http://www.w3.org/2000/svg"><g transform="translate(-681.785 -871)"><circle data-name="ico-tariff-phone" cx="49" cy="49" r="49" transform="translate(681.785 871)"/><g data-name="Group 114" stroke-linecap="round" stroke-width="2.632"><path data-name="Path 447" d="M726.174 902.395h30.036a2.575 2.575 0 012.575 2.575v34.122a2.575 2.575 0 01-2.575 2.575h-50.247a2.575 2.575 0 01-2.575-2.575V904.97a2.575 2.575 0 012.575-2.575h3.905"/><path data-name="Path 448" d="M752.185 915.444h-19.41v-6.418h19.41v2.805"/><path data-name="Line 434" d="M732.776 933.032h3.227"/><path data-name="Line 435" d="M740.868 933.032h3.227"/><path data-name="Line 436" d="M748.959 933.032h3.227"/><path data-name="Line 437" d="M732.776 927.531h3.227"/><path data-name="Line 438" d="M740.868 927.531h3.227"/><path data-name="Line 439" d="M748.959 927.531h3.227"/><path data-name="Line 440" d="M732.776 922.029h3.227"/><path data-name="Line 441" d="M740.868 922.029h3.227"/><path data-name="Line 442" d="M748.959 922.029h3.227"/><path data-name="Path 449" d="M709.869 902.396v-5.125a3.215 3.215 0 013.215-3.215h9.876a3.215 3.215 0 013.215 3.215v34.547a3.214 3.214 0 01-3.215 3.214h-9.875a3.214 3.214 0 01-3.215-3.214v-24.832"/></g></g></svg><svg viewBox="0 0 98 98" id="ico-tariff-phone-white" xmlns="http://www.w3.org/2000/svg"><g transform="translate(-380.785 -871)"><circle data-name="ico-tariff-phone-white" cx="49" cy="49" r="49" transform="translate(380.785 871)"/><g data-name="Group 113" stroke-linecap="round" stroke-width="2.632"><path data-name="Path 444" d="M425.174 902.395h30.036a2.575 2.575 0 012.575 2.575v34.122a2.575 2.575 0 01-2.575 2.575h-50.247a2.575 2.575 0 01-2.575-2.575V904.97a2.575 2.575 0 012.575-2.575h3.9"/><path data-name="Path 445" d="M451.185 915.444h-19.41v-6.418h19.41v2.805"/><path data-name="Line 425" d="M431.776 933.032h3.227"/><path data-name="Line 426" d="M439.868 933.032h3.227"/><path data-name="Line 427" d="M447.959 933.032h3.227"/><path data-name="Line 428" d="M431.776 927.531h3.227"/><path data-name="Line 429" d="M439.868 927.531h3.227"/><path data-name="Line 430" d="M447.959 927.531h3.227"/><path data-name="Line 431" d="M431.776 922.029h3.227"/><path data-name="Line 432" d="M439.868 922.029h3.227"/><path data-name="Line 433" d="M447.959 922.029h3.227"/><path data-name="Path 446" d="M408.869 902.396v-5.125a3.215 3.215 0 013.215-3.215h9.876a3.215 3.215 0 013.215 3.215v34.547a3.214 3.214 0 01-3.215 3.214h-9.875a3.214 3.214 0 01-3.215-3.214v-24.832"/></g></g></svg><svg viewBox="0 0 98 98" id="ico-tariff-speedometer" xmlns="http://www.w3.org/2000/svg"><defs><clipPath id="cba"><path class="cba" d="M0 0h98v98H0z"/></clipPath><style>.cbd{stroke-linecap:round;stroke-linejoin:round;stroke-width:2.64px}</style></defs><g id="cbico-tariff-speedometer" class="cbb"><circle class="cbc" cx="49" cy="49" r="49"/><path class="cbd" d="M21.31 58.06l3.63-1.16m48.13-15.78l3.62-1.16M31.92 72.6l2.25-3.06m29.67-41.06l2.25-3.06M49.05 78.14l.02-3.8m-.13-50.66l.02-3.8m17.2 52.67l-2.22-3.09m-29.88-40.9l-2.22-3.09m20.99 18.28l6.26-8.62M24.9 41.24l-3.62-1.19m57.35 7.22A29.68 29.68 0 0120.8 58.22m-1.46-8.05A29.68 29.68 0 0177.2 39.78M55.08 51.19a6.22 6.22 0 11-2.24-7.44"/></g></svg><svg viewBox="0 0 98 98" id="ico-tariff-speedometer-white" xmlns="http://www.w3.org/2000/svg"><g transform="translate(-301 -1833)"><circle data-name="Ellipse 2" cx="49" cy="49" r="49" transform="translate(301 1833)"/><path data-name="Line 51" d="M323.314 1891.056l3.622-1.159"/><path data-name="Line 52" d="M375.071 1874.123l3.622-1.159"/><path data-name="Line 53" d="M333.919 1905.604l2.249-3.066"/><path data-name="Line 54" d="M365.838 1861.482l2.249-3.066"/><path data-name="Line 55" d="M351.05 1911.139l.017-3.802"/><path data-name="Line 56" d="M350.939 1856.682l.017-3.802"/><path data-name="Line 57" d="M368.163 1905.548l-2.221-3.086"/><path data-name="Line 58" d="M336.064 1861.557l-2.221-3.086"/><path data-name="Line 59" d="M354.832 1876.747l6.255-8.62"/><path data-name="Line 60" d="M326.896 1874.244l-3.611-1.191"/><path data-name="Path 54" d="M380.628 1880.273a29.675 29.675 0 01-57.829 10.948"/><path data-name="Path 55" d="M321.345 1883.173a29.675 29.675 0 0157.856-10.393"/><path data-name="Path 56" d="M357.085 1884.19a6.194 6.194 0 11-2.243-7.443"/></g></svg><svg viewBox="0 0 98 98" id="ico-tariff-telefon" xmlns="http://www.w3.org/2000/svg"><g transform="translate(-1315.785 -873.803)"><circle data-name="ico-tariff-telefon" cx="49" cy="49" r="49" transform="translate(1315.785 873.803)"/><g data-name="Group 129" stroke-linecap="round" stroke-miterlimit="10" stroke-width="2.488"><path data-name="Path 183" d="M1351.414 916.896c-1.136-1.889-.931-2.417-.931-2.417l3.39-5.117a3.288 3.288 0 00-.3-4.164l-7.025-7.258a2.789 2.789 0 00-3.783-.243l-3.051 2.459a3.578 3.578 0 00-.7.738c-6.021 8.736 2.426 22.5 12.839 33.262 10.129 10.475 23.838 19.8 32.115 13.134a3.521 3.521 0 00.619-.66l2.385-3.238a3.074 3.074 0 00-.256-3.934l-7.023-7.257a2.981 2.981 0 00-4.005-.289l-4.9 3.554s-1.961.739-11.48-9.1a75.5 75.5 0 01-6.788-7.813 21.991 21.991 0 01-1.1-1.651"/><path data-name="Path 184" d="M1377.875 921.435a14.909 14.909 0 00-1.394-6.308 13.89 13.89 0 00-12.361-8.173"/><path data-name="Path 185" d="M1385.891 921.435a23.494 23.494 0 00-2.2-9.94 21.884 21.884 0 00-19.576-12.878"/></g></g></svg><svg viewBox="0 0 98 98" id="ico-tariff-telefon-white" xmlns="http://www.w3.org/2000/svg"><g data-name="ico-tariff-telefon-white"><path data-name="Ellipse 2" d="M49 0A49 49 0 110 49 49 49 0 0149 0z"/><g stroke-linecap="round" stroke-miterlimit="10" stroke-width="2.488"><path data-name="Path 177" d="M35.629 44.093c-1.136-1.889-.931-2.417-.931-2.417l3.39-5.117a3.288 3.288 0 00-.3-4.164l-7.025-7.258a2.789 2.789 0 00-3.783-.243l-3.051 2.459a3.577 3.577 0 00-.7.738c-6.021 8.736 2.426 22.5 12.839 33.262 10.129 10.475 23.838 19.8 32.115 13.134a3.521 3.521 0 00.619-.66l2.385-3.238a3.074 3.074 0 00-.256-3.934l-7.023-7.257a2.981 2.981 0 00-4.005-.289l-4.9 3.554s-1.961.739-11.48-9.1a75.485 75.485 0 01-6.788-7.813 21.991 21.991 0 01-1.1-1.651"/><path data-name="Path 178" d="M62.09 48.632a14.909 14.909 0 00-1.394-6.308 13.89 13.89 0 00-12.361-8.173"/><path data-name="Path 179" d="M70.106 48.632a23.5 23.5 0 00-2.2-9.94A21.884 21.884 0 0048.33 25.814"/></g></g><g data-name="Group 130"><path data-name="Path 450" d="M61.6 76.73c-7.91 0-17.772-7.354-25.532-15.377-10.413-10.767-18.86-24.527-12.839-33.262a3.532 3.532 0 01.7-.739l3.051-2.457a2.788 2.788 0 013.783.242l7.025 7.258a3.288 3.288 0 01.3 4.164l-3.389 5.116s-.2.529.931 2.417c.28.464.64 1.011 1.1 1.651a75.642 75.642 0 006.789 7.815c9.518 9.841 11.48 9.1 11.48 9.1l4.9-3.553a2.982 2.982 0 014.005.288l7.024 7.259a3.072 3.072 0 01.256 3.933L68.8 73.822a3.565 3.565 0 01-.62.661 10.184 10.184 0 01-6.577 2.244z"/><path data-name="Path 451" d="M48.332 25.814a21.885 21.885 0 0119.577 12.877 23.5 23.5 0 012.2 9.941z"/><path data-name="Path 452" d="M48.332 34.15a13.893 13.893 0 0112.362 8.173 14.917 14.917 0 011.394 6.31z"/></g></svg><svg viewBox="0 0 98 98" id="ico-tariff-wifi" xmlns="http://www.w3.org/2000/svg"><circle cx="49" cy="49" r="49"/><path d="M25.11 40.61a33.41 33.41 0 0147.25 0M32.74 48.24a22.62 22.62 0 0132-.05v.05m-24.39 7.61a11.9 11.9 0 0116.8 0M51.93 64.23a3.18 3.18 0 11-6.36 0A3.17 3.17 0 0151 62a3.1 3.1 0 01.93 2.23z"/></svg><svg viewBox="0 0 98 98" id="ico-tariff-wifi-white" xmlns="http://www.w3.org/2000/svg"><path data-name="ico-tariff-wifi-white" d="M49 0A49 49 0 110 49 49 49 0 0149 0z"/><g data-name="Group 126"><path data-name="Path 467" d="M25.355 40.609a33.411 33.411 0 0147.291 0"/><path data-name="Path 468" d="M32.983 48.237a22.622 22.622 0 0132.035 0"/><path data-name="Path 469" d="M40.598 55.852a11.9 11.9 0 0116.8 0"/><path data-name="Path 470" d="M52.178 64.226a3.178 3.178 0 11-6.356.047 3.187 3.187 0 013.15-3.2 3.163 3.163 0 012.256.917 3.126 3.126 0 01.95 2.236z"/></g></svg><svg viewBox="0 0 98 98" id="ico-tariff-wifi_ico-tariff-wifi" xmlns="http://www.w3.org/2000/svg"><defs><style>.chb{fill:none;stroke:#fff;stroke-linecap:round;stroke-miterlimit:10;stroke-width:2.63px}</style></defs><circle cx="49" cy="49" r="49"/><path class="chb" d="M25.11 40.61a33.41 33.41 0 0147.25 0m-39.62 7.63a22.62 22.62 0 0132-.05v.05m-24.39 7.61a11.9 11.9 0 0116.8 0"/><path d="M51.93 64.23a3.18 3.18 0 11-6.36 0A3.17 3.17 0 0151 62a3.1 3.1 0 01.93 2.23z"/></svg><svg viewBox="0 0 53.233 55.159" id="ico-telefon" xmlns="http://www.w3.org/2000/svg"><path data-name="Path 177" class="cicls-1" d="M15.677 21.247c-1.136-1.889-.931-2.417-.931-2.417l3.39-5.117a3.288 3.288 0 00-.3-4.164l-7.025-7.258a2.79 2.79 0 00-3.783-.243L3.977 4.507a3.569 3.569 0 00-.7.738c-6.021 8.736 2.426 22.5 12.839 33.262 10.129 10.475 23.838 19.8 32.115 13.134a3.54 3.54 0 00.619-.66l2.385-3.238a3.074 3.074 0 00-.256-3.934l-7.023-7.257a2.981 2.981 0 00-4.005-.289l-4.9 3.554s-1.961.739-11.48-9.1a75.591 75.591 0 01-6.788-7.813 21.991 21.991 0 01-1.1-1.651"/><path data-name="Path 178" class="cicls-1" d="M42.138 25.786a14.907 14.907 0 00-1.394-6.308 13.89 13.89 0 00-12.361-8.173"/><path data-name="Path 179" class="cicls-1" d="M50.154 25.786a23.483 23.483 0 00-2.2-9.94A21.884 21.884 0 0028.378 2.968"/></svg><svg viewBox="0 0 11 14" id="ico-tooltip" xmlns="http://www.w3.org/2000/svg"><g transform="translate(-489 -852.417)"><circle data-name="Container-1 copy 15" cx="5.5" cy="5.5" r="5.5" transform="translate(489 854)" opacity=".2"/><text data-name="?" transform="translate(496.662 863.417)" font-size="10" font-family="SegoeUI, Segoe UI" letter-spacing="-.025em"><tspan x="-4.482" y="0">?</tspan></text></g></svg><svg viewBox="0 0 116.064 66.761" id="ico-truck-with-arrow" xmlns="http://www.w3.org/2000/svg"><g transform="translate(.2 .1)" stroke-width="3"><path data-name="Line 452" d="M82.905 53.713H61.931"/><path data-name="Path 475" d="M108.699 53.713h1.326a4.321 4.321 0 004.339-4.339v-8.8a6.132 6.132 0 00-2.772-5.183l-5.3-3.375a4.228 4.228 0 01-1.929-2.772l-2.414-10.728a4.55 4.55 0 00-4.578-3.616h-8.8a4.321 4.321 0 01-4.339-4.339V5.739A4.321 4.321 0 0079.891 1.4H26.01a4.321 4.321 0 00-4.339 4.339v48.095"/><path data-name="Line 453" d="M36.136 53.713H21.671"/><path data-name="Path 476" d="M95.922 21.048l2.408 11.089h-14.1V21.048z"/><path data-name="Line 454" d="M111.592 44.432h2.772"/><circle data-name="Ellipse 120" cx="9.281" cy="9.281" r="9.281" transform="rotate(-80.804 53.41 10.248)"/><circle data-name="Ellipse 121" cx="9.281" cy="9.281" r="9.281" transform="rotate(-76.761 78.783 -20.86)"/><path data-name="Path 477" d="M95.079 53.713a2.893 2.893 0 11-2.893-2.893 2.933 2.933 0 012.893 2.893z"/><circle data-name="Ellipse 122" cx="2.893" cy="2.893" r="2.893" transform="translate(42.524 50.82)"/><path data-name="Line 455" d="M77.239 32.137H21.671"/><path data-name="Line 456" d="M45.417 17.432h14.465"/><path data-name="Path 478" d="M56.506 12.248l4.219 5.183-4.219 5.063"/><path data-name="Line 457" d="M14.318 53.713H1.3"/><path data-name="Line 458" d="M14.318 44.432H5.519"/><path data-name="Line 459" d="M14.318 35.271h-4.46"/></g></svg><svg viewBox="0 0 4.688 11.661" id="phone" xmlns="http://www.w3.org/2000/svg"><path d="M4.674 10.983a1.149 1.149 0 00-.109-.611q-.038-.142-.114-.4t-.135-.466q-.059-.211-.106-.4c0-.022-.015-.089-.036-.2a1.9 1.9 0 00-.066-.27.438.438 0 00-.1-.168.556.556 0 00-.372-.1 3.211 3.211 0 00-.554.033 4.141 4.141 0 01-.544.042.51.51 0 01-.353-.083.452.452 0 01-.083-.13 1.407 1.407 0 01-.057-.137c-.011-.033-.027-.093-.047-.18s-.032-.135-.036-.145a6.637 6.637 0 010-3.873c0-.01.015-.058.036-.145s.036-.147.047-.18a1.449 1.449 0 01.057-.137.459.459 0 01.083-.13.51.51 0 01.353-.083 4.141 4.141 0 01.544.042 3.252 3.252 0 00.554.033.558.558 0 00.372-.1.438.438 0 00.1-.168 1.9 1.9 0 00.066-.27l.036-.2q.047-.189.106-.4t.135-.466c.051-.17.088-.3.114-.4A1.151 1.151 0 004.674.68a.379.379 0 00-.085-.114A2.251 2.251 0 004.208.28a2.648 2.648 0 00-.424-.225 1.793 1.793 0 00-1.08.075 2.593 2.593 0 00-1.122.64 2.53 2.53 0 00-.232.265 2.862 2.862 0 00-.213.331q-.109.194-.156.294t-.166.36c-.079.174-.128.279-.147.317a6.064 6.064 0 00-.436 1.222 11.245 11.245 0 000 4.546 6.064 6.064 0 00.436 1.222c.019.038.068.144.147.317s.134.293.166.36.084.164.156.294a2.863 2.863 0 00.213.331 2.442 2.442 0 00.232.265 2.593 2.593 0 001.122.64 1.8 1.8 0 001.08.076 2.716 2.716 0 00.424-.225 2.223 2.223 0 00.381-.286.379.379 0 00.085-.113z"/></svg></svg>